<?xml version="1.0" standalone="no"?>
<!DOCTYPE svg PUBLIC "-//W3C//DTD SVG 1.1//EN" "http://www.w3.org/Graphics/SVG/1.1/DTD/svg11.dtd" >
<svg xmlns="http://www.w3.org/2000/svg">
<metadata></metadata>
<defs>
<font id="psl_omyimspbold" horiz-adv-x="819" >
<font-face units-per-em="2048" ascent="1638" descent="-410" />
<missing-glyph horiz-adv-x="512" />
<glyph horiz-adv-x="0" />
<glyph unicode="&#xd;" horiz-adv-x="512" />
<glyph unicode=" "  horiz-adv-x="512" />
<glyph unicode="&#x09;" horiz-adv-x="512" />
<glyph unicode="&#xa0;" horiz-adv-x="512" />
<glyph unicode="!" horiz-adv-x="440" d="M86 98q0 27 10.5 50t28.5 40.5t42.5 27t53.5 9.5q28 0 52 -9.5t42 -27t28.5 -40.5t10.5 -50t-10.5 -49.5t-28.5 -39t-42 -25.5t-52 -9q-29 0 -53.5 9t-42.5 25.5t-28.5 39t-10.5 49.5zM98 436v391q0 160 123 160q121 0 121 -160v-391q0 -162 -121 -162q-123 0 -123 162z " />
<glyph unicode="&#x22;" horiz-adv-x="489" d="M55 580v368h156v-368h-156zM283 580v368h153v-368h-153z" />
<glyph unicode="#" horiz-adv-x="1114" d="M27 262l59 150h197l51 135h-209l59 151h207l101 269h180l-103 -269h146l100 269h176l-100 -269h196l-59 -151h-194l-52 -135h203l-57 -150h-201l-104 -264h-177l103 264h-146l-102 -264h-176l100 264h-198zM459 412h147l51 135h-147z" />
<glyph unicode="$" horiz-adv-x="805" d="M35 135q0 48 34 77.5t91 29.5q11 0 37.5 -6.5t68.5 -18.5q84 -24 137 -24q45 0 75 25t30 61q0 51 -45 77q-14 8 -44.5 19.5t-78.5 25.5q-155 43 -221 103q-72 66 -72 174q0 56 18.5 105.5t54 89t88 67.5t120.5 41v59q0 82 65 82q70 0 70 -82v-51q119 -11 182.5 -51 t63.5 -100q0 -45 -29.5 -73t-83.5 -28q-22 0 -88 17q-32 8 -55 12t-37 4q-103 0 -103 -72q0 -37 47 -59q39 -12 71 -22.5t58 -18.5q285 -88 285 -299q0 -62 -23 -116t-64.5 -96.5t-98.5 -70.5t-125 -36v-78q0 -82 -70 -82q-37 0 -51 18.5t-14 63.5v73q-143 14 -218 58.5 t-75 101.5z" />
<glyph unicode="%" horiz-adv-x="1014" d="M14 752q0 46 17.5 86t48.5 70t73 47.5t91 17.5q46 0 87.5 -17.5t72.5 -47.5t49 -70t18 -86t-18 -86.5t-49 -70.5t-72.5 -47.5t-87.5 -17.5q-49 0 -91 17.5t-73 47.5t-48.5 70.5t-17.5 86.5zM160 63q0 39 22 74l469 766q52 76 109 76q42 0 67 -23.5t25 -58.5 q0 -41 -27 -74l-467 -766q-47 -75 -106 -75q-38 0 -65 22t-27 59zM180 752q0 -23 19 -41.5t45 -18.5q23 0 42 17.5t19 42.5q0 24 -18.5 42.5t-42.5 18.5q-26 0 -45 -16t-19 -45zM545 209q0 46 17.5 86t48 69.5t72 46.5t89.5 17q46 0 87.5 -17t72.5 -46.5t49 -69.5t18 -86 q0 -48 -17.5 -87.5t-48 -68.5t-72 -45t-89.5 -16t-89.5 16t-72 45t-48 68.5t-17.5 87.5zM709 209q0 -34 26 -51q8 -5 17 -8t20 -3q23 0 41 18.5t18 43.5t-17 42t-42 17q-26 0 -44.5 -16.5t-18.5 -42.5z" />
<glyph unicode="&#x26;" horiz-adv-x="993" d="M29 272q0 186 225 293q-88 101 -88 191q0 49 21.5 91.5t61.5 73.5t96 48.5t124 17.5q67 0 122.5 -18t95.5 -50t61.5 -76t21.5 -95q0 -149 -164 -244l121 -133q29 29 45 47t23 24q52 50 96 50q19 0 36.5 -7.5t30.5 -21t21 -31.5t8 -39q0 -64 -123 -172q36 -40 49 -59 q35 -47 35 -82q0 -43 -30.5 -69.5t-75.5 -26.5q-42 0 -86 32q-11 11 -26.5 24.5t-35.5 33.5q-66 -51 -142 -75t-175 -24q-149 0 -250 82q-98 86 -98 215zM276 276q0 -48 35 -80t92 -32q79 0 160 63l-172 187q-115 -53 -115 -138zM395 752q0 -44 72 -107q98 41 98 103 q0 29 -25.5 50t-62.5 21q-35 0 -58.5 -19t-23.5 -48z" />
<glyph unicode="'" horiz-adv-x="266" d="M55 580v368h156v-368h-156z" />
<glyph unicode="(" horiz-adv-x="481" d="M98 426q0 131 22.5 246.5t67.5 226.5q52 129 129 129q45 0 72 -24.5t27 -67.5q-42 -123 -72.5 -249t-30.5 -261q0 -71 9 -136.5t24 -127.5t33.5 -122t36.5 -118q0 -92 -99 -92q-37 0 -64.5 24.5t-53.5 75.5q-23 49 -41.5 107.5t-31.5 122t-20.5 131t-7.5 135.5z" />
<glyph unicode=")" horiz-adv-x="481" d="M63 -78q22 61 41 122t33 123.5t22.5 126.5t8.5 132q0 71 -8 137t-25 129q-18 60 -36.5 121t-35.5 123q0 92 101 92q71 0 117 -100q23 -51 41 -109.5t32 -124.5q14 -69 21.5 -135.5t7.5 -132.5q0 -124 -23.5 -243t-66.5 -224q-53 -129 -129 -129q-48 0 -74.5 24.5 t-26.5 67.5z" />
<glyph unicode="*" horiz-adv-x="731" d="M111 641q0 55 110 88q-57 20 -83.5 39t-26.5 51q0 31 20 53.5t55 22.5q16 0 32.5 -6.5t31 -15t26.5 -17.5t19 -14l-8 67q0 78 78 78q81 0 81 -78q0 -11 -4 -32t-6 -35q14 11 24.5 18t16.5 12q35 23 68 23q31 0 53.5 -22.5t22.5 -53.5q0 -15 -6 -27t-19.5 -22t-34.5 -19.5 t-51 -21.5q60 -20 85.5 -38.5t25.5 -49.5q0 -32 -22 -54t-54 -22q-33 0 -68 23q-5 5 -14.5 11.5t-26.5 18.5q1 -7 2.5 -17l3 -20t3 -18.5t1.5 -11.5q0 -80 -81 -80q-78 0 -78 80l8 67q-20 -14 -32.5 -22.5t-20.5 -13.5q-29 -17 -56 -17q-31 0 -53 22.5t-22 53.5z" />
<glyph unicode="+" d="M61 332v145h275v275h145v-275h277v-145h-277v-277h-145v277h-275z" />
<glyph unicode="," horiz-adv-x="422" d="M-8 -104q0 30 18 69l115 187q47 77 108 77q44 0 73.5 -25t29.5 -67q0 -17 -6 -33q-3 -15 -19 -38l-110 -187q-50 -78 -111 -78q-42 0 -70 26.5t-28 68.5z" />
<glyph unicode="-" horiz-adv-x="629" d="M47 375q0 92 125 92h289q119 0 119 -92t-121 -92h-289q-123 0 -123 92z" />
<glyph unicode="." horiz-adv-x="422" d="M72 119q0 28 11 51.5t29.5 40.5t44.5 27t56 10t55 -10t43.5 -27t28.5 -40.5t10 -51.5t-10 -51t-28.5 -39.5t-43.5 -25.5t-55 -9t-56 9t-44.5 25.5t-29.5 39.5t-11 51z" />
<glyph unicode="/" horiz-adv-x="547" d="M-59 61q0 35 22 70l436 776q25 44 49.5 64t59.5 20q45 0 74.5 -25t29.5 -67q0 -32 -22 -68l-443 -780q-40 -78 -106 -78q-21 0 -39 6.5t-31.5 18.5t-21.5 28t-8 35z" />
<glyph unicode="0" d="M37 483q0 241 108 381q103 127 265 127q163 0 264 -125q54 -69 81 -164t27 -219q0 -240 -108 -381q-101 -122 -264 -122t-265 120q-54 70 -81 164.5t-27 218.5zM291 483q0 -135 34 -209.5t85 -74.5q118 0 118 284q0 143 -32 214t-86 71q-51 0 -85 -71t-34 -214z" />
<glyph unicode="1" d="M125 852q0 56 40.5 82.5t133.5 26.5h115q141 0 141 -162v-647q0 -158 -127 -158t-127 158v589h-12q-164 0 -164 111z" />
<glyph unicode="2" d="M43 109q0 42 74 122q17 19 44.5 48t65.5 67q254 260 254 342q0 37 -21.5 58.5t-53.5 21.5q-33 0 -57.5 -22.5t-43.5 -67.5q-44 -117 -123 -117q-55 0 -88 32.5t-33 88.5q0 43 17.5 90.5t54.5 89.5q107 125 281 125q74 0 135 -21.5t104.5 -59.5t67.5 -91t24 -117 q0 -105 -86 -221q-62 -86 -243 -258h182q174 0 174 -110q0 -56 -40.5 -82.5t-133.5 -26.5h-405q-150 0 -150 109z" />
<glyph unicode="3" d="M43 242q0 51 31 81.5t82 30.5q32 0 57.5 -15.5t54.5 -53.5q14 -19 24.5 -31t16.5 -18q40 -43 101 -43q22 0 41.5 8.5t34.5 23t23.5 34.5t8.5 44t-8.5 40.5t-25.5 28t-43 19t-60 12.5q-30 6 -50 13.5t-32.5 19.5t-17.5 29.5t-5 44.5q0 43 24.5 66.5t80.5 37.5q98 23 98 86 q0 31 -19 50.5t-54 19.5q-33 0 -54 -14q-5 -2 -15 -10t-30 -25q-11 -11 -22.5 -19.5t-22.5 -19.5q-40 -31 -84 -31q-43 0 -73.5 28.5t-30.5 72.5q0 84 100 159q51 39 109.5 57.5t128.5 18.5q133 0 223 -78t90 -188q0 -114 -109 -193q81 -42 120.5 -102.5t39.5 -138.5 q0 -136 -104 -226q-103 -86 -269 -86q-124 0 -231 70q-129 91 -129 197z" />
<glyph unicode="4" d="M4 297q0 35 8 51q2 2 13 21.5t34 56.5l281 442q21 30 40.5 50.5t40.5 33t45 18t54 5.5q88 0 139.5 -57.5t51.5 -169.5v-336q49 0 75.5 -30.5t26.5 -74.5q0 -21 -7 -39.5t-20.5 -33t-32 -23t-42.5 -8.5v-90q0 -60 -33 -90.5t-90 -30.5q-109 0 -109 129v82h-323 q-152 0 -152 94zM289 412h190v315z" />
<glyph unicode="5" d="M41 170q0 48 28 76t76 28q32 0 103 -41q69 -38 123 -38q27 0 51 10t42 27.5t28 41.5t10 52q0 123 -115 123q-14 0 -35.5 -4.5t-52.5 -12.5t-51 -12t-31 -4q-100 0 -100 102l8 76l31 244q5 37 15.5 61t29.5 38t47 19t69 5h281q158 0 158 -109t-150 -109h-227l-12 -90 q18 5 42.5 7t41.5 2q133 0 223 -93q90 -90 90 -231q0 -161 -109 -262q-54 -51 -124 -76t-158 -25q-135 0 -236 58q-96 59 -96 137z" />
<glyph unicode="6" d="M33 324q0 205 235 483q163 184 238 184q24 0 45.5 -9t38.5 -24t27 -35t10 -42q0 -38 -62 -103q-51 -54 -85.5 -92t-51.5 -61l57 4q124 0 211 -90q45 -45 66.5 -100t21.5 -124q0 -146 -110 -243q-109 -97 -277 -97q-161 0 -262 95q-102 99 -102 254zM287 311 q0 -25 9.5 -47t25.5 -38.5t37.5 -26t46.5 -9.5q24 0 46 10t38.5 26.5t26 38.5t9.5 46q0 25 -9.5 46.5t-25.5 37.5t-38 25.5t-47 9.5t-46.5 -8.5t-37.5 -24t-25.5 -37.5t-9.5 -49z" />
<glyph unicode="7" d="M43 848q0 56 34.5 84.5t112.5 28.5h398q178 0 178 -127q0 -35 -23 -84l-333 -672q-29 -54 -59 -78.5t-72 -24.5q-56 0 -92.5 30.5t-36.5 80.5q0 39 30 98l291 559h-264q-43 0 -74 5t-51 17t-29.5 32t-9.5 51z" />
<glyph unicode="8" d="M31 289q0 153 129 239q-86 74 -86 185q0 119 94 194q93 80 240 80q146 0 241 -78q94 -75 94 -196q0 -108 -86 -185q127 -86 127 -239q0 -66 -26 -122.5t-80 -103.5q-107 -88 -270 -88q-166 0 -273 88q-104 90 -104 226zM283 309q0 -25 10 -47.5t27 -40t39.5 -27.5 t48.5 -10q25 0 48 9.5t40.5 26.5t28 39.5t10.5 49.5q0 25 -10 48t-27 40t-40 27t-50 10q-25 0 -47.5 -9.5t-40 -26t-27.5 -39.5t-10 -50zM315 694q0 -18 7 -34.5t20 -29t29.5 -19.5t36.5 -7q19 0 36 7t30 19t20.5 28.5t7.5 35.5q0 37 -26 63.5t-68 26.5q-19 0 -36 -7.5 t-29.5 -20t-20 -28.5t-7.5 -34z" />
<glyph unicode="9" d="M33 641q0 148 108 248q107 100 279 100q157 0 260 -98q102 -96 102 -252q0 -106 -58 -227t-177 -258q-163 -181 -236 -181q-24 0 -46.5 8t-39.5 22.5t-27 34.5t-10 44q0 20 23 52.5t68 80.5q35 35 61.5 66t46.5 57l-49 -4q-132 0 -219 88q-86 87 -86 219zM291 649 q0 -24 9.5 -46t25 -38t37 -25.5t45.5 -9.5t45.5 9.5t38 25.5t26.5 38t10 46q0 25 -9.5 47.5t-25.5 38.5t-38 25.5t-47 9.5t-46.5 -9t-37 -24.5t-24.5 -38t-9 -49.5z" />
<glyph unicode=":" horiz-adv-x="422" d="M72 119q0 28 11 51.5t29.5 40.5t44.5 27t56 10t55 -10t43.5 -27t28.5 -40.5t10 -51.5t-10 -51t-28.5 -39.5t-43.5 -25.5t-55 -9t-56 9t-44.5 25.5t-29.5 39.5t-11 51zM72 516q0 28 11 51.5t29.5 40.5t44.5 27t56 10t55 -10t43.5 -27t28.5 -40.5t10 -51.5t-10 -51.5 t-28.5 -41t-43.5 -27t-55 -9.5t-56 9.5t-44.5 27t-29.5 41t-11 51.5z" />
<glyph unicode=";" horiz-adv-x="422" d="M-8 -104q0 30 18 69l115 187q47 77 108 77q44 0 73.5 -25t29.5 -67q0 -17 -6 -33q-3 -15 -19 -38l-110 -187q-50 -78 -111 -78q-42 0 -70 26.5t-28 68.5zM72 516q0 28 11 51.5t29.5 40.5t44.5 27t56 10t55 -10t43.5 -27t28.5 -40.5t10 -51.5t-10.5 -52t-29.5 -41.5 t-44 -27.5t-53 -10q-30 0 -56 10t-44.5 27t-29.5 41t-11 53z" />
<glyph unicode="&#x3c;" horiz-adv-x="1204" d="M182 332v143l840 313v-163l-600 -222l600 -223v-162z" />
<glyph unicode="=" d="M61 197v145h697v-145h-697zM61 465v145h697v-145h-697z" />
<glyph unicode="&#x3e;" horiz-adv-x="1204" d="M182 18v162l602 223l-602 222v163l840 -313v-143z" />
<glyph unicode="?" horiz-adv-x="743" d="M6 735q0 88 96 166q101 82 252 82q160 0 254 -88q99 -89 99 -217q0 -56 -18 -104t-50.5 -84.5t-78 -61.5t-101.5 -35q0 -66 -32 -101.5t-89 -35.5q-119 0 -119 131v84q0 72 53 94q6 1 19 4t28 7l30 8t24 8q71 27 71 96q0 31 -26.5 53.5t-63.5 22.5q-35 0 -61.5 -13 t-56.5 -44q-17 -17 -27.5 -27t-18.5 -16q-40 -35 -79 -35q-45 0 -75 29t-30 77zM203 98q0 28 10.5 51t28.5 39.5t42.5 25.5t53.5 9q28 0 53 -9t43 -25.5t28.5 -39.5t10.5 -51q0 -27 -10.5 -49.5t-28.5 -39t-43 -25.5t-53 -9t-52.5 10t-43 26.5t-29 39t-10.5 47.5z" />
<glyph unicode="@" horiz-adv-x="1440" d="M61 344q0 225 148 391q211 242 575 242q119 0 225 -30.5t181 -84.5q190 -138 190 -360q0 -227 -180 -361q-99 -75 -233 -75q-138 0 -156 90q-69 -88 -199 -88q-233 0 -233 231q0 162 100 268q101 107 246 107q107 0 164 -78l31 55h141l-105 -399l-4 -25q0 -34 54 -34 q51 0 104 47q121 104 121 264q0 150 -125 248q-127 98 -326 98q-96 0 -178 -21t-151 -63q-240 -150 -240 -422q0 -192 141 -309q144 -113 375 -113q226 0 424 125l66 -90q-113 -78 -234 -118t-252 -40q-136 0 -249 32.5t-199 94.5q-222 154 -222 418zM549 295 q0 -113 98 -113q56 0 99.5 36.5t60.5 105.5l37 137q-20 98 -111 98q-38 0 -71 -20.5t-58.5 -56.5t-40 -84t-14.5 -103z" />
<glyph unicode="A" horiz-adv-x="907" d="M0 98q0 17 2.5 33.5t7.5 32.5l262 665q62 146 189 146q125 0 180 -131l256 -676q8 -25 11 -43t3 -29q0 -49 -34.5 -77.5t-90.5 -28.5q-93 0 -131 108l-24 78h-359l-30 -86q-37 -100 -121 -100q-54 0 -87.5 29.5t-33.5 78.5zM344 395h213l-100 305z" />
<glyph unicode="B" horiz-adv-x="897" d="M90 143v658q0 43 8 73t27 49.5t51.5 28.5t81.5 9h188q161 0 244.5 -63.5t83.5 -180.5q0 -126 -104 -185q184 -51 184 -239q0 -68 -24 -122t-71.5 -92t-116.5 -58.5t-159 -20.5h-227q-48 0 -80 7t-51 24t-27 44t-8 68zM340 205h104q148 0 148 96q0 94 -152 94h-100v-190z M340 594h86q50 0 76 22.5t26 59.5t-28 59.5t-76 22.5h-84v-164z" />
<glyph unicode="C" horiz-adv-x="874" d="M39 479q0 230 143 367q145 141 365 141q68 0 125.5 -13t99 -35.5t65 -51.5t23.5 -60q0 -21 -8.5 -40.5t-23.5 -34t-34.5 -23t-41.5 -8.5q-11 0 -27.5 2.5t-36.5 7.5q-48 14 -82 20.5t-57 6.5q-53 0 -96.5 -20t-75 -57t-49 -89.5t-17.5 -116.5q0 -65 17 -115.5t49 -86 t77 -54t101 -18.5q55 0 147 30q54 17 68 17q18 0 36.5 -8.5t33 -22.5t23.5 -33t9 -41q0 -35 -23.5 -66t-66.5 -53.5t-103.5 -35.5t-133.5 -13q-230 0 -367 136q-139 139 -139 368z" />
<glyph unicode="D" horiz-adv-x="1010" d="M90 143v658q0 43 8 73t27 49.5t51.5 28.5t81.5 9h184q193 0 308 -68q52 -30 93 -72t69.5 -94t43.5 -111.5t15 -123.5q0 -114 -34.5 -205t-100 -155t-159 -98t-210.5 -34h-211q-48 0 -80 7t-51 24t-27 44t-8 68zM340 219h94q264 0 264 273q0 249 -268 249h-90v-522z" />
<glyph unicode="E" horiz-adv-x="737" d="M90 143v658q0 43 8 73t27 49.5t51.5 28.5t81.5 9h260q174 0 174 -111q0 -109 -174 -109h-178v-147h152q174 0 174 -111q0 -55 -41 -81.5t-133 -26.5h-152v-156h184q174 0 174 -110q0 -56 -40.5 -82.5t-133.5 -26.5h-268q-48 0 -80 7t-51 24t-27 44t-8 68z" />
<glyph unicode="F" horiz-adv-x="715" d="M90 150v651q0 43 8 73t27 49.5t51.5 28.5t81.5 9h260q174 0 174 -111q0 -109 -174 -109h-178v-147h152q174 0 174 -111q0 -55 -41 -81.5t-133 -26.5h-152v-225q0 -158 -125 -158t-125 158z" />
<glyph unicode="G" horiz-adv-x="1047" d="M39 481q0 233 141 371q137 137 379 137q85 0 153 -15.5t122 -47.5q108 -65 108 -144q0 -21 -8.5 -41t-23.5 -35.5t-34.5 -24.5t-41.5 -9q-14 0 -42 11t-73 34q-91 47 -166 47q-56 0 -101.5 -19t-77 -55t-48.5 -88t-17 -117q0 -68 17 -121t48.5 -90.5t76 -57t100.5 -19.5 q43 0 78.5 12t60.5 34t39 53.5t14 70.5h-67q-172 0 -172 108q0 111 172 111h168q47 0 79.5 -8t53 -26t30 -47.5t9.5 -72.5q0 -202 -133 -332q-131 -125 -351 -125q-219 0 -356 138q-137 137 -137 368z" />
<glyph unicode="H" horiz-adv-x="1083" d="M90 150v661q0 162 125 162t125 -162v-213h401v213q0 162 127 162q125 0 125 -162v-661q0 -158 -125 -158q-127 0 -127 158v229h-401v-229q0 -158 -125 -158t-125 158z" />
<glyph unicode="I" horiz-adv-x="440" d="M94 150v661q0 162 127 162q125 0 125 -162v-661q0 -158 -125 -158q-127 0 -127 158z" />
<glyph unicode="J" horiz-adv-x="657" d="M-6 139q0 50 29 79.5t83 29.5q14 0 38.5 -7.5t56.5 -23.5q38 -16 53 -16q38 0 50.5 37t12.5 129v444q0 162 125 162q127 0 127 -162v-514q0 -320 -307 -320q-62 0 -111.5 12.5t-84 34.5t-53.5 51.5t-19 63.5z" />
<glyph unicode="K" horiz-adv-x="897" d="M90 150v661q0 162 125 162t125 -162v-207l272 289q80 78 129 78q50 0 82.5 -30.5t32.5 -78.5q0 -51 -61 -112l-240 -234l301 -307q59 -59 59 -111q0 -22 -9.5 -41.5t-25 -33.5t-36.5 -22.5t-45 -8.5q-35 0 -63.5 17t-69.5 59l-326 335v-253q0 -158 -125 -158t-125 158z " />
<glyph unicode="L" horiz-adv-x="676" d="M90 145v666q0 162 125 162t125 -162v-592h184q174 0 174 -110q0 -56 -40.5 -82.5t-133.5 -26.5h-268q-48 0 -80 7t-51 23.5t-27 44.5t-8 70z" />
<glyph unicode="M" horiz-adv-x="1247" d="M20 109l11 67l123 643q16 80 53 117t112 37q137 0 170 -135l146 -523l131 523q33 135 170 135q39 0 67 -9t48.5 -28.5t34 -50.5t22.5 -74l111 -649l6 -53q0 -56 -35.5 -87.5t-89.5 -31.5q-110 0 -125 131l-68 506q-66 -269 -110 -418t-64 -178q-27 -41 -104 -41 q-113 0 -148 114l-135 525l-72 -496q-18 -141 -131 -141q-54 0 -88.5 30.5t-34.5 86.5z" />
<glyph unicode="N" horiz-adv-x="1083" d="M90 150v669q0 154 117 154q72 0 131 -74l403 -498v410q0 162 127 162q125 0 125 -162v-684q0 -141 -116 -141q-39 0 -73.5 19.5t-66.5 57.5l-397 490v-403q0 -158 -125 -158t-125 158z" />
<glyph unicode="O" horiz-adv-x="1092" d="M39 479q0 228 139 367q141 141 369 141q226 0 364 -141q142 -138 142 -367q0 -221 -140 -366q-137 -138 -366 -138q-232 0 -369 136q-139 139 -139 368zM311 477q0 -65 16 -116.5t46.5 -88t74 -56t99.5 -19.5q52 0 95 19.5t73.5 56t47.5 88t17 116.5q0 67 -16.5 120.5 t-47 90.5t-73.5 56.5t-96 19.5t-96.5 -19.5t-74.5 -56.5t-48 -90.5t-17 -120.5z" />
<glyph unicode="P" horiz-adv-x="881" d="M90 150v651q0 43 8 73t27 49.5t51.5 28.5t81.5 9h209q90 0 160.5 -22.5t119 -65.5t74 -104t25.5 -138q0 -78 -24 -139t-70.5 -103.5t-114 -65t-154.5 -22.5h-143v-151q0 -158 -125 -158t-125 158zM340 516h90q145 0 145 115q0 112 -145 112h-90v-227z" />
<glyph unicode="Q" horiz-adv-x="1092" d="M39 479q0 228 139 367q141 141 369 141q226 0 364 -141q142 -138 142 -367q0 -173 -90 -301l65 -55q53 -47 53 -100q0 -20 -8 -38t-22.5 -32t-34 -22.5t-43.5 -8.5q-26 0 -53.5 12t-53.5 35l-73 58q-101 -52 -246 -52q-232 0 -369 136q-139 139 -139 368zM311 477 q0 -65 16.5 -117.5t47 -89t74.5 -56t100 -19.5q17 0 30 1.5t21 6.5q-51 44 -51 94q0 42 28 70t70 28q46 0 111 -53q11 37 16.5 70.5t5.5 64.5q0 67 -16.5 120.5t-47 90.5t-73.5 56.5t-96 19.5t-96.5 -19.5t-74.5 -56.5t-48 -90.5t-17 -120.5z" />
<glyph unicode="R" horiz-adv-x="868" d="M90 150v651q0 43 8 73t27 49.5t51.5 28.5t81.5 9h180q95 0 169 -22t124.5 -61.5t76.5 -95.5t26 -125q0 -100 -60 -168.5t-172 -91.5l170 -176q70 -70 70 -129q0 -48 -34 -77t-85 -29q-35 0 -65.5 16.5t-67.5 58.5l-250 291v-202q0 -158 -125 -158t-125 158zM340 535h96 q135 0 135 106q0 102 -133 102h-98v-208z" />
<glyph unicode="S" horiz-adv-x="805" d="M35 135q0 50 32.5 78.5t92.5 28.5q8 0 42.5 -8t94.5 -23q35 -8 61.5 -12t44.5 -4q44 0 74.5 24t30.5 62q0 24 -9 41.5t-29 31t-52 24.5t-78 23q-155 43 -221 103q-72 66 -72 174q0 67 26.5 124t76 98t119 64t155.5 23q64 0 117 -12t90 -32t57.5 -48t20.5 -59 q0 -45 -29.5 -73t-83.5 -28q-22 0 -88 17q-32 8 -55 12t-37 4q-103 0 -103 -70q0 -46 68 -67q35 -11 61.5 -19t46.5 -14q285 -88 285 -297q0 -71 -29 -130.5t-82 -102.5t-126.5 -67t-163.5 -24q-141 0 -242 46q-96 46 -96 112z" />
<glyph unicode="T" horiz-adv-x="692" d="M-25 850q0 111 170 111h402q174 0 174 -111q0 -109 -174 -109h-76v-591q0 -158 -125 -158q-127 0 -127 158v591h-74q-170 0 -170 109z" />
<glyph unicode="U" horiz-adv-x="1067" d="M90 414v397q0 162 125 162t125 -162v-375q0 -239 192 -239q193 0 193 239v375q0 162 127 162q125 0 125 -162v-397q0 -108 -30 -190.5t-87 -137.5t-140 -83t-188 -28q-102 0 -184 28t-139 83.5t-88 137.5t-31 190z" />
<glyph unicode="V" horiz-adv-x="838" d="M-14 852q0 54 35 86.5t92 32.5q75 0 114 -99l203 -507l184 499q40 107 125 107q123 0 123 -111q0 -18 -3 -38t-11 -40l-297 -706q-44 -90 -129 -90q-79 0 -119 82l-305 720q-12 31 -12 64z" />
<glyph unicode="W" horiz-adv-x="1319" d="M10 868q0 50 35 78.5t92 28.5q103 0 121 -103l113 -553l153 555q31 99 140 99q106 0 137 -101l149 -553l113 539q27 115 127 115q56 0 90.5 -30.5t34.5 -78.5q0 -12 -2.5 -28.5t-7.5 -36.5l-177 -662q-10 -41 -22.5 -68.5t-31 -44.5t-46 -24.5t-67.5 -7.5 q-127 0 -166 125l-140 499l-131 -487q-33 -137 -176 -137q-36 0 -63 7.5t-47 24.5t-34 44.5t-24 68.5l-168 682z" />
<glyph unicode="X" horiz-adv-x="844" d="M-14 92q0 26 11.5 53t37.5 62l239 313l-180 234q-53 65 -53 112q0 48 33.5 77.5t89.5 29.5q62 0 127 -86l133 -172l135 176q69 84 131 84q22 0 42 -8t36 -22.5t25.5 -33t9.5 -39.5q0 -29 -13 -54t-42 -60l-181 -236l242 -317q15 -22 24.5 -35.5t12.5 -19.5 q8 -17 12 -31.5t4 -28.5q0 -21 -8.5 -38.5t-24 -31t-36.5 -21t-45 -7.5q-69 0 -136 80l-194 258l-195 -256q-64 -80 -129 -80q-48 0 -78 28t-30 70z" />
<glyph unicode="Y" horiz-adv-x="756" d="M-25 868q0 44 32.5 74.5t86.5 30.5q62 0 127 -86l164 -217l166 221q63 84 131 84q21 0 41 -9t35.5 -23t25 -33t9.5 -38q0 -16 -3 -29t-9.5 -26t-16.5 -27t-25 -32l-231 -309v-299q0 -158 -125 -158q-127 0 -127 158v299l-229 305q-14 20 -22 33.5t-13 21.5 q-8 14 -12.5 29t-4.5 30z" />
<glyph unicode="Z" horiz-adv-x="776" d="M-4 117q0 35 15 66.5t46 68.5l400 493h-277q-174 0 -174 107q0 56 40.5 82.5t133.5 26.5h391q207 0 207 -115q0 -18 -4 -33t-12 -30.5t-21.5 -33t-31.5 -38.5l-387 -492h305q174 0 174 -110q0 -109 -174 -109h-463q-168 0 -168 117z" />
<glyph unicode="[" horiz-adv-x="522" d="M102 -29v903q0 44 8 74.5t27.5 50t52 28.5t82.5 9h103q57 0 89 -21t32 -59q0 -82 -123 -82h-56v-886h58q60 0 90.5 -23t30.5 -61q0 -80 -123 -80h-101q-49 0 -82 7t-52.5 24.5t-27.5 45.5t-8 70z" />
<glyph unicode="\" horiz-adv-x="547" d="M-59 899q0 19 8 36t21.5 29.5t31.5 19.5t39 7q61 0 106 -84l443 -778q22 -42 22 -68q0 -19 -8.5 -35t-22.5 -28t-33.5 -18.5t-41.5 -6.5q-65 0 -109 78l-434 780q-22 36 -22 68z" />
<glyph unicode="]" horiz-adv-x="522" d="M27 -96q0 37 31.5 60.5t88.5 23.5h58v886h-55q-123 0 -123 82q0 80 120 80h103q49 0 82 -9t52.5 -28.5t27.5 -50.5t8 -74v-903q0 -42 -8 -70t-27.5 -45.5t-52 -24.5t-80.5 -7h-102q-123 0 -123 80z" />
<glyph unicode="^" horiz-adv-x="1440" d="M274 594l355 371h182l352 -371h-192l-250 225l-252 -225h-195z" />
<glyph unicode="_" horiz-adv-x="731" d="M0 -139h731v-135h-731v135z" />
<glyph unicode="`" horiz-adv-x="731" d="M168 1004q0 38 28.5 63t69.5 25q57 0 90 -45l105 -127q24 -29 24 -62q0 -78 -86 -78q-8 0 -16.5 1t-18.5 5t-22.5 13t-28.5 24l-106 107q-39 35 -39 74z" />
<glyph unicode="a" horiz-adv-x="874" d="M33 360q0 160 104 269q106 108 254 108q108 0 178 -67q44 59 109 59q121 0 121 -162v-415q0 -158 -121 -158q-74 0 -111 61q-76 -67 -184 -67q-72 0 -133.5 25.5t-114.5 76.5q-102 110 -102 270zM287 362q0 -74 36.5 -116.5t96.5 -42.5t96.5 42.5t36.5 116.5 q0 73 -38 114.5t-95 41.5t-95 -41.5t-38 -114.5z" />
<glyph unicode="b" horiz-adv-x="874" d="M78 152v718q0 162 123 162q121 0 121 -162v-172q32 23 74.5 36.5t90.5 13.5q151 0 252 -109q103 -109 103 -277q0 -159 -107 -266q-103 -106 -248 -106q-110 0 -180 61q-11 -14 -19.5 -23t-13.5 -14q-17 -11 -35 -15.5t-38 -4.5q-123 0 -123 158zM317 367 q0 -79 38.5 -122.5t101.5 -43.5q30 0 55 12t42.5 34t27.5 52.5t10 67.5q0 78 -36.5 123t-98.5 45t-101 -45t-39 -123z" />
<glyph unicode="c" horiz-adv-x="694" d="M33 360q0 166 106 271q107 106 289 106q123 0 191.5 -39t68.5 -102q0 -43 -28.5 -71.5t-73.5 -28.5q-8 0 -25 4t-45 12t-49.5 12t-38.5 4q-63 0 -103 -44t-40 -119q0 -81 38.5 -123.5t112.5 -42.5q17 0 38.5 4t49.5 12t44.5 12t21.5 5q43 0 70.5 -29.5t27.5 -71.5 q0 -31 -20 -57.5t-56 -46t-86.5 -30.5t-111.5 -11q-84 0 -152.5 24.5t-122.5 75.5q-106 105 -106 274z" />
<glyph unicode="d" horiz-adv-x="874" d="M33 369q0 161 104 270q106 109 252 109q99 0 164 -50v172q0 162 125 162q121 0 121 -162v-718q0 -158 -121 -158q-66 0 -111 57q-70 -61 -178 -61q-143 0 -250 106q-106 107 -106 273zM285 367q0 -75 37.5 -120.5t99.5 -45.5t98.5 43.5t36.5 122.5q0 78 -36.5 123 t-98.5 45q-60 0 -98.5 -45t-38.5 -123z" />
<glyph unicode="e" horiz-adv-x="817" d="M33 358q0 165 110 273q116 108 277 108q160 0 268 -102q107 -101 107 -250q0 -28 -6.5 -46t-21 -28.5t-37.5 -15t-56 -4.5h-387q21 -107 155 -107q70 0 144 33q81 35 92 35q45 0 72.5 -23t27.5 -65q0 -67 -100 -125q-101 -55 -248 -55q-172 0 -285 104q-112 108 -112 268 zM285 446h268q-8 48 -45 76.5t-86 28.5q-110 0 -137 -105z" />
<glyph unicode="f" horiz-adv-x="520" d="M-8 612q0 48 31.5 75.5t99.5 27.5l-2 26q0 143 62 217t179 74q76 0 118 -31.5t42 -85.5q0 -45 -26.5 -66.5t-69.5 -27.5q-44 -3 -49 -16q-3 -5 -4.5 -18t-1.5 -33v-39h22q154 0 154 -103q0 -100 -154 -100h-28v-360q0 -158 -119 -158q-123 0 -123 158v360 q-131 0 -131 100z" />
<glyph unicode="g" horiz-adv-x="868" d="M33 358q0 162 104 271q106 108 254 108q108 0 178 -67q41 59 101 59q121 0 121 -162v-420q0 -57 -2.5 -100t-8.5 -77t-16.5 -61t-26.5 -54q-101 -158 -348 -158q-78 0 -140.5 12.5t-107 34t-68.5 50.5t-24 63q0 45 30.5 73.5t78.5 28.5q11 0 35 -6.5t61 -20.5 q40 -14 75.5 -21t67.5 -7q164 0 164 162v8q-2 -4 -2 -15q-25 -32 -73.5 -51.5t-116.5 -19.5q-138 0 -238 102q-49 54 -73.5 120.5t-24.5 147.5zM287 358q0 -78 36.5 -123t98.5 -45t98.5 45t36.5 123q0 75 -36.5 117.5t-98.5 42.5q-60 0 -97.5 -43.5t-37.5 -116.5z" />
<glyph unicode="h" horiz-adv-x="858" d="M78 152v718q0 162 123 162q121 0 121 -162v-184q71 53 182 53q282 0 282 -286v-301q0 -158 -122 -158q-123 0 -123 158v237q0 80 -24 116t-87 36q-108 0 -108 -150v-239q0 -158 -121 -158q-123 0 -123 158z" />
<glyph unicode="i" horiz-adv-x="412" d="M68 901q0 28 10.5 52t29 41.5t44 27.5t55.5 10t55 -10t43.5 -27t28.5 -41.5t10 -52.5t-10.5 -52t-29.5 -41.5t-44 -27.5t-53 -10q-31 0 -56.5 10t-44 27t-28.5 41t-10 53zM84 152v419q0 164 123 164t123 -164v-419q0 -158 -123 -158t-123 158z" />
<glyph unicode="j" horiz-adv-x="412" d="M68 901q0 28 10.5 52t29 41.5t44 27.5t55.5 10q28 0 53 -10t44 -27.5t29.5 -41.5t10.5 -52t-10 -52t-28.5 -42t-43.5 -28.5t-55 -10.5t-55.5 10t-44 28t-29 42t-10.5 53zM84 -129v698q0 164 123 164t123 -164v-698q0 -164 -123 -164t-123 164z" />
<glyph unicode="k" horiz-adv-x="750" d="M78 152v718q0 162 123 162q121 0 121 -162v-360l170 166q65 59 124 59q22 0 41 -7t33 -19.5t22.5 -29t8.5 -34.5q0 -60 -62 -108l-141 -123l203 -224q45 -49 45 -106q0 -19 -8.5 -36t-24 -29.5t-36.5 -19.5t-46 -7q-71 0 -125 63l-204 256v-159q0 -158 -121 -158 q-123 0 -123 158z" />
<glyph unicode="l" horiz-adv-x="412" d="M84 152v718q0 162 123 162t123 -162v-718q0 -158 -123 -158t-123 158z" />
<glyph unicode="m" horiz-adv-x="1266" d="M78 152v415q0 162 123 162q64 0 106 -59q70 61 176 61q146 0 224 -92q98 92 227 92q124 0 193 -72.5t69 -209.5v-297q0 -158 -123 -158q-121 0 -121 158v235q0 75 -20.5 111.5t-71.5 36.5q-100 0 -100 -146v-237q0 -158 -123 -158t-123 158v235q0 148 -90 148 q-56 0 -79 -36t-23 -110v-237q0 -158 -121 -158q-123 0 -123 158z" />
<glyph unicode="n" horiz-adv-x="858" d="M78 152v415q0 162 123 162q64 0 106 -59q69 63 197 63q282 0 282 -284v-297q0 -158 -122 -158q-123 0 -123 158v235q0 80 -24 115t-87 35q-108 0 -108 -148v-237q0 -158 -121 -158q-123 0 -123 158z" />
<glyph unicode="o" horiz-adv-x="846" d="M33 360q0 163 108 273q114 108 281 108q175 0 280 -106q109 -109 109 -275t-111 -274q-105 -104 -278 -104q-174 0 -281 104q-108 110 -108 274zM287 362q0 -78 36.5 -122.5t98.5 -44.5q31 0 56 12t43 34t28 52.5t10 68.5q0 37 -10 67.5t-28.5 52t-43.5 33t-55 11.5 q-60 0 -97.5 -44t-37.5 -120z" />
<glyph unicode="p" horiz-adv-x="874" d="M78 -131v698q0 162 123 162q64 0 106 -59q69 63 182 63q150 0 250 -106q51 -54 77 -120.5t26 -148.5q0 -160 -105 -274q-104 -109 -250 -109q-45 0 -86 12.5t-79 35.5v-154q0 -162 -121 -162q-123 0 -123 162zM317 354q0 -78 39 -123t101 -45q30 0 55 12t42.5 34.5 t27.5 53t10 68.5q0 37 -10.5 67.5t-29 52t-43 33t-52.5 11.5q-62 0 -101 -42.5t-39 -121.5z" />
<glyph unicode="q" horiz-adv-x="874" d="M33 358q0 168 100 269q102 106 252 106q113 0 182 -63q47 59 111 59q121 0 121 -162v-698q0 -162 -121 -162q-125 0 -125 162v154q-35 -23 -76.5 -35.5t-89.5 -12.5q-144 0 -250 109q-52 57 -78 125t-26 149zM285 354q0 -38 10 -68.5t28 -53t43 -34.5t56 -12 q62 0 98.5 45t36.5 123q0 79 -36.5 121.5t-98.5 42.5t-99.5 -44t-37.5 -120z" />
<glyph unicode="r" horiz-adv-x="561" d="M78 152v415q0 162 123 162q64 0 106 -59q63 63 152 63q25 0 47.5 -8.5t40 -23.5t27.5 -35.5t10 -44.5q0 -61 -92 -99q-27 -10 -53 -19t-48 -19t-37.5 -20t-21.5 -22q-5 -12 -7.5 -30.5t-2.5 -42.5v-217q0 -158 -121 -158q-123 0 -123 158z" />
<glyph unicode="s" horiz-adv-x="639" d="M14 143q0 45 26.5 74t70.5 29q35 0 104 -31q37 -14 62.5 -21.5t39.5 -7.5q54 0 54 33q0 17 -31 33q-25 11 -46 18t-40 15q-57 23 -98 44t-64 44q-57 51 -57 133q0 100 82 166q81 69 209 69q118 0 194 -49q78 -46 78 -106q0 -42 -29.5 -69.5t-74.5 -27.5q-26 0 -88 25 q-59 27 -93 27q-41 0 -41 -27q0 -12 13 -22t34 -19t48 -17.5t55 -17.5q98 -41 145 -89.5t47 -121.5q0 -54 -23 -98.5t-64 -76.5t-98.5 -50t-127.5 -18q-65 0 -117.5 12t-90.5 33.5t-58.5 50.5t-20.5 63z" />
<glyph unicode="t" horiz-adv-x="494" d="M-8 612q0 48 31.5 75.5t99.5 27.5v82q0 161 123 161q119 0 119 -161v-82h12q149 0 149 -103q0 -100 -151 -100h-10v-360q0 -158 -119 -158q-123 0 -123 158v360q-131 0 -131 100z" />
<glyph unicode="u" horiz-adv-x="844" d="M74 293v274q0 162 123 162q118 0 118 -162v-233q0 -74 22.5 -107.5t84.5 -33.5q60 0 81 34.5t21 106.5v233q0 162 123 162t123 -162v-274q0 -155 -90 -233t-258 -78t-258 77.5t-90 233.5z" />
<glyph unicode="v" horiz-adv-x="680" d="M-2 616q0 50 31.5 81.5t85.5 31.5q84 0 125 -108l110 -328l111 340q27 92 114 92q54 0 85.5 -29.5t31.5 -79.5q0 -14 -4 -32t-12 -41l-191 -453q-11 -29 -23.5 -48.5t-28.5 -32t-37.5 -18t-49.5 -5.5q-30 0 -51.5 5t-37.5 17t-29 33.5t-25 54.5l-197 459q-5 19 -6.5 34 t-1.5 27z" />
<glyph unicode="w" horiz-adv-x="1096" d="M-2 616q0 50 31.5 81.5t85.5 31.5q87 0 125 -111l104 -339l86 342q24 100 115 100q93 0 125 -105l90 -333l106 350q35 92 117 92q51 0 84 -29t33 -80q0 -11 -1 -18.5t-3 -15.5q0 -2 -3.5 -11.5t-11.5 -27.5l-172 -453q-11 -29 -23.5 -48.5t-28.5 -32t-36.5 -18 t-48.5 -5.5q-115 0 -145 112l-82 291l-76 -297q-14 -49 -49.5 -77.5t-89.5 -28.5q-51 0 -87 27.5t-59 82.5l-178 459q-5 20 -6.5 35t-1.5 26z" />
<glyph unicode="x" horiz-adv-x="721" d="M-2 102q0 54 43 97l180 182l-149 143q-43 43 -43 92q0 22 9 42.5t24.5 36.5t36 25t42.5 9q56 0 103 -47l129 -137l114 133q51 51 101 51q27 0 49.5 -8.5t39.5 -23t26.5 -35t9.5 -44.5q0 -42 -54 -96l-139 -139l168 -178q29 -29 41 -50.5t12 -56.5q0 -45 -31 -74.5 t-79 -29.5q-60 0 -113 53l-149 168l-152 -168q-53 -53 -104 -53q-50 0 -82.5 30t-32.5 78z" />
<glyph unicode="y" horiz-adv-x="702" d="M0 614q0 51 33.5 83t87.5 32q79 0 125 -106l112 -291l127 307q41 90 111 90q57 0 89 -30t32 -81q0 -11 -0.5 -18t-2.5 -14.5t-6 -17t-10 -25.5l-342 -752q-20 -45 -44 -67.5t-62 -22.5q-123 0 -123 111v23q0 8 2 11q2 5 5 15t11 24l91 178l-224 490q-12 21 -12 61z" />
<glyph unicode="z" horiz-adv-x="655" d="M-4 74q0 47 33 86l290 352h-169q-150 0 -150 102q0 105 150 105h360q81 0 116.5 -14.5t35.5 -59.5q0 -36 -48 -96l-284 -338h198q152 0 152 -105q0 -106 -154 -106h-405q-125 0 -125 74z" />
<glyph unicode="{" horiz-adv-x="608" d="M49 348v156l37 -2q80 0 112.5 37t32.5 118v162q0 43 3 74.5t11.5 55t24 40t39.5 29.5q31 18 81 26.5t118 8.5l63 -2v-156h-43q-34 0 -55 -5.5t-33 -19.5t-16 -37t-4 -57v-158q0 -43 -5 -74.5t-18 -54t-34.5 -38t-55.5 -25.5q33 -12 55 -27.5t34.5 -38t18 -53.5t5.5 -74 v-157q0 -35 4 -57t16 -35t33 -18t55 -5l43 2v-156l-63 -2q-38 0 -66.5 2t-52 6t-43 10.5t-37.5 16.5q-24 13 -39.5 29.5t-24 39t-11.5 53t-3 71.5v164q0 40 -7.5 69t-24.5 48t-44.5 27.5t-68.5 8.5z" />
<glyph unicode="|" horiz-adv-x="731" d="M285 -315v1347h164v-1347h-164z" />
<glyph unicode="}" horiz-adv-x="608" d="M37 -35l43 -2q34 0 55.5 5t33.5 18t16.5 35t4.5 57v158q0 43 5 74t17.5 53.5t34 37.5t54.5 27q-32 10 -53 25.5t-34 38t-18.5 54.5t-5.5 75v157q0 34 -4.5 56.5t-16.5 36.5t-33.5 20t-55.5 6h-43v156h59q38 0 67.5 -1.5t53.5 -5.5t44.5 -11t41.5 -19q43 -20 59.5 -66.5 t16.5 -128.5v-164q0 -81 32 -117t113 -36l37 2v-156h-35q-81 0 -114 -35t-33 -116v-164q0 -42 -3 -73.5t-11.5 -54t-24.5 -38t-41 -27.5q-31 -17 -79.5 -26t-117.5 -9l-65 3v155z" />
<glyph unicode="~" horiz-adv-x="1204" d="M113 352q0 50 45 82q87 61 153.5 88t126.5 27q26 0 58 -4.5t67 -14.5q15 -2 39 -10.5t52 -18.5t57 -17.5t55 -8.5q37 0 75.5 16t86.5 48q26 20 61 20q21 0 39 -8.5t32 -23t22 -34t8 -40.5q0 -48 -48 -82q-143 -101 -276 -101q-37 0 -68 6q-23 7 -39.5 11.5l-27.5 7.5 q-50 17 -99.5 33t-93.5 16q-52 0 -162 -78q-28 -22 -61 -22q-21 0 -39.5 9t-32.5 24t-22 34.5t-8 40.5z" />
<glyph unicode="&#xa4;" horiz-adv-x="840" d="M8 164l148 145q-31 42 -46.5 89.5t-15.5 103.5q0 114 62 188l-148 150l76 71l145 -145q79 59 193 59q56 0 106 -16.5t82 -42.5l150 145l71 -71l-145 -150q59 -77 59 -188q0 -116 -59 -193l145 -145l-71 -76l-150 148q-15 -12 -36.5 -23.5t-46 -20t-51.5 -13.5t-54 -5 q-56 0 -103.5 15.5t-89.5 46.5l-145 -148zM197 502q0 -95 63 -164q65 -68 162 -68q93 0 158 68q63 63 63 164q0 46 -16.5 87.5t-45.5 72.5t-70 49t-89 18q-96 0 -160 -67q-65 -73 -65 -160z" />
<glyph unicode="&#xa9;" horiz-adv-x="1081" d="M41 483q0 206 145 353q147 145 353 145q207 0 352 -145q145 -147 145 -353q0 -207 -145 -352q-144 -141 -352 -141t-353 141q-145 145 -145 352zM141 483q0 -161 115 -282q114 -117 283 -117q163 0 280 117t117 282q0 167 -117 281q-114 117 -280 117t-283 -117 q-115 -115 -115 -281zM260 483q0 59 20 109t57 86.5t89 57t117 20.5q104 0 182 -60q68 -51 68 -104q0 -21 -3 -35.5t-10.5 -23.5t-20.5 -14t-34 -9q-40 0 -61 18q-7 3 -29 47q-25 39 -92 39q-119 0 -119 -131q0 -60 32.5 -96.5t86.5 -36.5q42 0 61.5 12t30.5 29q18 38 29 47 q18 19 61 19q38 -8 53 -24.5t15 -57.5q0 -52 -68 -105q-76 -61 -182 -61q-65 0 -117 19.5t-89 55.5t-57 86.5t-20 112.5z" />
<glyph unicode="&#xab;" horiz-adv-x="737" d="M33 356q0 58 33 97q15 17 39.5 35.5t58.5 41.5q45 32 80 50t61 18q68 0 68 -86q0 -15 -2.5 -25.5t-9 -19t-17 -17t-25.5 -20.5l-110 -74l110 -73q18 -12 28.5 -22.5t16.5 -20t7.5 -19.5t1.5 -22q0 -42 -19.5 -63t-50.5 -21q-45 0 -139 67q-25 16 -43.5 29.5t-32.5 26.5 q-55 48 -55 118zM360 356q0 56 33 97q31 33 99 77q48 32 82.5 50t60.5 18q63 0 63 -86q0 -31 -11.5 -47t-37.5 -35l-108 -74l108 -73q15 -9 24.5 -17.5t15 -18t7.5 -21t2 -27.5q0 -84 -67 -84q-45 0 -139 67q-39 26 -62.5 44.5t-34.5 29.5q-17 20 -26 45.5t-9 54.5z" />
<glyph unicode="&#xac;" d="M63 317v82h695v-268h-84v186h-611z" />
<glyph unicode="&#xad;" d="M61 332v145h697v-145h-697z" />
<glyph unicode="&#xae;" horiz-adv-x="1081" d="M41 483q0 206 145 353q147 145 353 145q207 0 352 -145q145 -147 145 -353q0 -207 -145 -352q-144 -141 -352 -141t-353 141q-145 145 -145 352zM141 483q0 -161 115 -282q114 -117 283 -117q163 0 280 117t117 282q0 167 -117 281q-114 117 -280 117t-283 -117 q-115 -115 -115 -281zM317 217v553h234q254 0 254 -162q0 -116 -121 -149l131 -242h-180l-109 219h-51v-219h-158zM475 535h60q55 0 80.5 14t25.5 51q0 68 -113 68h-53v-133z" />
<glyph unicode="&#xb0;" horiz-adv-x="541" d="M66 713q0 -43 16.5 -80t44 -64.5t63.5 -43t76 -15.5q42 0 79.5 15.5t65.5 43t44 64.5t16 80t-16 80t-44 64t-65.5 42.5t-79.5 15.5t-78.5 -16.5t-63.5 -44t-42.5 -64.5t-15.5 -77zM121 713q0 31 11 57.5t30.5 46t46 30.5t57.5 11t58 -11.5t47.5 -31t32.5 -46t12 -56.5 q0 -59 -45 -105q-45 -43 -105 -43q-30 0 -56.5 12t-46 32t-31 47t-11.5 57z" />
<glyph unicode="&#xb6;" horiz-adv-x="727" d="M-6 858q0 -161 110 -235q48 -31 113 -46.5t150 -15.5v-813h55v1364h145v-1364h62v1364h102v41h-389q-156 0 -248 -66q-51 -38 -75.5 -96t-24.5 -133z" />
<glyph unicode="&#xb7;" horiz-adv-x="338" d="M96 449q0 -32 21 -53t53 -21q29 0 50.5 21.5t21.5 52.5q0 29 -20.5 50t-51.5 21q-32 0 -53 -20.5t-21 -50.5z" />
<glyph unicode="&#xbb;" horiz-adv-x="737" d="M35 199q0 31 12.5 48t38.5 36l113 73l-113 74q-13 10 -22.5 18.5t-16 17.5t-9.5 20t-3 26q0 86 69 86q45 0 142 -68q66 -41 94 -75q17 -20 26 -45t9 -54q0 -28 -7 -50t-23 -42t-40.5 -40t-58.5 -44q-48 -31 -83.5 -48t-60.5 -17q-67 0 -67 84zM365 199q0 31 12.5 48 t38.5 36l108 73l-108 74q-13 10 -22.5 18.5t-16 17.5t-9.5 20t-3 26q0 86 69 86q29 0 58 -15.5t79 -52.5q74 -47 97 -75q34 -42 34 -99q0 -23 -4.5 -44t-15.5 -38q-23 -35 -111 -94q-45 -31 -80.5 -48t-60.5 -17q-65 0 -65 84z" />
<glyph unicode="&#xd7;" d="M68 168l237 238l-237 237l102 102l238 -237l239 240l103 -105l-240 -237l240 -240l-103 -103l-239 240l-238 -237z" />
<glyph unicode="&#xf7;" d="M61 332v145h697v-145h-697zM295 141q0 22 9 42t24.5 35t36.5 23.5t45 8.5t44.5 -8.5t36 -23.5t24.5 -35t9 -42t-9 -41.5t-24.5 -34.5t-36 -23.5t-44.5 -8.5t-45 8.5t-36.5 23.5t-24.5 34.5t-9 41.5zM295 668q0 22 9 41.5t24.5 34.5t36.5 23.5t45 8.5t44.5 -8.5t36 -23.5 t24.5 -34.5t9 -41.5q0 -23 -9 -42.5t-24.5 -34.5t-36 -23.5t-44.5 -8.5t-45 8.5t-36.5 23.5t-24.5 34.5t-9 42.5z" />
<glyph unicode="&#x2000;" horiz-adv-x="682" />
<glyph unicode="&#x2001;" horiz-adv-x="1365" />
<glyph unicode="&#x2002;" horiz-adv-x="682" />
<glyph unicode="&#x2003;" horiz-adv-x="1365" />
<glyph unicode="&#x2004;" horiz-adv-x="455" />
<glyph unicode="&#x2005;" horiz-adv-x="341" />
<glyph unicode="&#x2006;" horiz-adv-x="227" />
<glyph unicode="&#x2007;" horiz-adv-x="227" />
<glyph unicode="&#x2008;" horiz-adv-x="170" />
<glyph unicode="&#x2009;" horiz-adv-x="273" />
<glyph unicode="&#x200a;" horiz-adv-x="75" />
<glyph unicode="&#x2010;" horiz-adv-x="629" d="M47 375q0 92 125 92h289q119 0 119 -92t-121 -92h-289q-123 0 -123 92z" />
<glyph unicode="&#x2011;" horiz-adv-x="629" d="M47 375q0 92 125 92h289q119 0 119 -92t-121 -92h-289q-123 0 -123 92z" />
<glyph unicode="&#x2012;" horiz-adv-x="629" d="M47 375q0 92 125 92h289q119 0 119 -92t-121 -92h-289q-123 0 -123 92z" />
<glyph unicode="&#x2013;" d="M61 332v145h697v-145h-697z" />
<glyph unicode="&#x2014;" horiz-adv-x="1638" d="M61 332v145h1516v-145h-1516z" />
<glyph unicode="&#x2018;" horiz-adv-x="358" d="M41 745q0 103 70 173q70 73 149 73q8 0 15.5 -1t13.5 -3q24 -12 24 -41q0 -17 -16 -31q-31 -14 -52 -27.5t-35.5 -27.5t-22 -28.5t-11.5 -30.5q18 6 31 6q110 0 110 -109q0 -49 -36 -80.5t-93 -31.5q-33 0 -60 12t-46.5 33t-30 50t-10.5 64z" />
<glyph unicode="&#x2019;" horiz-adv-x="358" d="M41 874q0 50 36 81.5t93 31.5q33 0 60 -12t46.5 -33t30 -50.5t10.5 -64.5q0 -95 -71 -174q-71 -71 -148 -71q-20 0 -36.5 14t-16.5 31q0 11 7.5 20t19 16.5t26 15t29.5 15.5q23 17 36.5 38.5t18.5 39.5q-18 -6 -30 -6q-111 0 -111 108z" />
<glyph unicode="&#x201c;" horiz-adv-x="674" d="M41 745q0 103 70 173q70 73 149 73q8 0 15.5 -1t13.5 -3q24 -12 24 -41q0 -17 -16 -31q-31 -14 -52 -27.5t-35.5 -27.5t-22 -28.5t-11.5 -30.5q18 6 31 6q110 0 110 -109q0 -49 -36 -80.5t-93 -31.5q-33 0 -60 12t-46.5 33t-30 50t-10.5 64zM356 745q0 102 70 173 q70 73 149 73q8 0 15.5 -1t13.5 -3q25 -12 25 -41q0 -17 -17 -31q-31 -14 -52 -27.5t-35 -27.5t-21.5 -28.5t-11.5 -30.5q18 6 30 6q111 0 111 -109q0 -49 -36 -80.5t-93 -31.5q-33 0 -60.5 12t-47 33t-30 50t-10.5 64z" />
<glyph unicode="&#x201d;" horiz-adv-x="674" d="M41 874q0 50 36 81.5t93 31.5q33 0 60 -12t46.5 -33t30 -50.5t10.5 -64.5q0 -95 -71 -174q-71 -71 -148 -71q-20 0 -36.5 14t-16.5 31q0 11 7.5 20t19 16.5t26 15t29.5 15.5q23 17 36.5 38.5t18.5 39.5q-18 -6 -30 -6q-111 0 -111 108zM356 874q0 50 36 81.5t93 31.5 q33 0 60 -12t46.5 -33t30.5 -50.5t11 -64.5q0 -49 -18.5 -92t-53.5 -82q-71 -71 -147 -71q-20 0 -37 14t-17 31q0 11 7.5 20t19 16.5t26 15t29.5 15.5q23 17 37 38.5t19 39.5q-20 -6 -31 -6q-111 0 -111 108z" />
<glyph unicode="&#x2022;" horiz-adv-x="737" d="M61 410q0 126 91 217q90 90 217 90q125 0 217 -90q90 -92 90 -217q0 -127 -90 -217q-91 -91 -217 -91q-128 0 -217 91q-91 89 -91 217z" />
<glyph unicode="&#x2026;" horiz-adv-x="1268" d="M72 119q0 28 11 51.5t29.5 40.5t44.5 27t56 10t55 -10t43.5 -27t28.5 -40.5t10 -51.5t-10 -51t-28.5 -39.5t-43.5 -25.5t-55 -9t-56 9t-44.5 25.5t-29.5 39.5t-11 51zM494 119q0 28 11 51.5t29.5 40.5t44.5 27t56 10t55 -10t43.5 -27t28.5 -40.5t10 -51.5t-10 -51 t-28.5 -39.5t-43.5 -25.5t-55 -9t-56 9t-44.5 25.5t-29.5 39.5t-11 51zM915 119q0 28 11 51.5t30 40.5t45 27t56 10t55 -10t43.5 -27t28.5 -40.5t10 -51.5t-10 -51t-28.5 -39.5t-43.5 -25.5t-55 -9t-56 9t-45 25.5t-30 39.5t-11 51z" />
<glyph unicode="&#x202f;" horiz-adv-x="273" />
<glyph unicode="&#x205f;" horiz-adv-x="341" />
<glyph unicode="&#x25fc;" horiz-adv-x="730" d="M0 0v730h730v-730h-730z" />
</font>
</defs>
</svg>
